<mxfile host="Electron" modified="2023-04-15T12:33:25.791Z" agent="Mozilla/5.0 (Windows NT 10.0; Win64; x64) AppleWebKit/537.36 (KHTML, like Gecko) draw.io/21.1.2 Chrome/106.0.5249.199 Electron/21.4.3 Safari/537.36" etag="-jRaC8loXikOATyc99-L" version="21.1.2" type="device">
  <diagram id="R2lEEEUBdFMjLlhIrx00" name="Page-1">
    <mxGraphModel dx="4041" dy="4040" grid="1" gridSize="10" guides="1" tooltips="1" connect="1" arrows="1" fold="1" page="1" pageScale="1" pageWidth="850" pageHeight="1100" math="0" shadow="0" extFonts="Permanent Marker^https://fonts.googleapis.com/css?family=Permanent+Marker">
      <root>
        <mxCell id="0" />
        <mxCell id="1" parent="0" />
        <mxCell id="GPX1KlVqUzvG2VyEKRZV-11" value="Photonenkanal" style="swimlane;fontStyle=0;childLayout=stackLayout;horizontal=1;startSize=26;horizontalStack=0;resizeParent=1;resizeParentMax=0;resizeLast=0;collapsible=1;marginBottom=0;align=center;fontSize=14;" parent="1" vertex="1">
          <mxGeometry x="790" y="-1580" width="160" height="56" as="geometry" />
        </mxCell>
        <mxCell id="GPX1KlVqUzvG2VyEKRZV-12" value="Photon" style="swimlane;fontStyle=0;childLayout=stackLayout;horizontal=1;startSize=26;horizontalStack=0;resizeParent=1;resizeParentMax=0;resizeLast=0;collapsible=1;marginBottom=0;align=center;fontSize=14;" parent="1" vertex="1">
          <mxGeometry x="390" y="-1580" width="160" height="56" as="geometry" />
        </mxCell>
        <mxCell id="GPX1KlVqUzvG2VyEKRZV-13" value="polarisation" style="text;strokeColor=none;fillColor=none;spacingLeft=4;spacingRight=4;overflow=hidden;rotatable=0;points=[[0,0.5],[1,0.5]];portConstraint=eastwest;fontSize=12;whiteSpace=wrap;html=1;" parent="GPX1KlVqUzvG2VyEKRZV-12" vertex="1">
          <mxGeometry y="26" width="160" height="30" as="geometry" />
        </mxCell>
        <mxCell id="GPX1KlVqUzvG2VyEKRZV-14" value="Photonendetektor" style="swimlane;fontStyle=0;childLayout=stackLayout;horizontal=1;startSize=26;horizontalStack=0;resizeParent=1;resizeParentMax=0;resizeLast=0;collapsible=1;marginBottom=0;align=center;fontSize=14;" parent="1" vertex="1">
          <mxGeometry x="980" y="-1460" width="160" height="56" as="geometry" />
        </mxCell>
        <mxCell id="GPX1KlVqUzvG2VyEKRZV-15" value="polarisationsschema" style="text;strokeColor=none;fillColor=none;spacingLeft=4;spacingRight=4;overflow=hidden;rotatable=0;points=[[0,0.5],[1,0.5]];portConstraint=eastwest;fontSize=12;whiteSpace=wrap;html=1;" parent="GPX1KlVqUzvG2VyEKRZV-14" vertex="1">
          <mxGeometry y="26" width="160" height="30" as="geometry" />
        </mxCell>
        <mxCell id="GPX1KlVqUzvG2VyEKRZV-16" value="BitÃ¼bertragungskanal" style="swimlane;fontStyle=0;childLayout=stackLayout;horizontal=1;startSize=26;horizontalStack=0;resizeParent=1;resizeParentMax=0;resizeLast=0;collapsible=1;marginBottom=0;align=center;fontSize=14;" parent="1" vertex="1">
          <mxGeometry x="790" y="-920" width="160" height="56" as="geometry" />
        </mxCell>
        <mxCell id="GPX1KlVqUzvG2VyEKRZV-18" value="Photonenemitter" style="swimlane;fontStyle=0;childLayout=stackLayout;horizontal=1;startSize=26;horizontalStack=0;resizeParent=1;resizeParentMax=0;resizeLast=0;collapsible=1;marginBottom=0;align=center;fontSize=14;" parent="1" vertex="1">
          <mxGeometry x="600" y="-1460" width="160" height="56" as="geometry" />
        </mxCell>
        <mxCell id="GPX1KlVqUzvG2VyEKRZV-24" value="Rolle" style="swimlane;fontStyle=0;childLayout=stackLayout;horizontal=1;startSize=26;horizontalStack=0;resizeParent=1;resizeParentMax=0;resizeLast=0;collapsible=1;marginBottom=0;align=center;fontSize=14;" parent="1" vertex="1">
          <mxGeometry x="790" y="-1100" width="160" height="86" as="geometry" />
        </mxCell>
        <mxCell id="GPX1KlVqUzvG2VyEKRZV-25" value="daten" style="text;strokeColor=none;fillColor=none;spacingLeft=4;spacingRight=4;overflow=hidden;rotatable=0;points=[[0,0.5],[1,0.5]];portConstraint=eastwest;fontSize=12;whiteSpace=wrap;html=1;align=left;" parent="GPX1KlVqUzvG2VyEKRZV-24" vertex="1">
          <mxGeometry y="26" width="160" height="30" as="geometry" />
        </mxCell>
        <mxCell id="GPX1KlVqUzvG2VyEKRZV-26" value="passwort" style="text;strokeColor=none;fillColor=none;spacingLeft=4;spacingRight=4;overflow=hidden;rotatable=0;points=[[0,0.5],[1,0.5]];portConstraint=eastwest;fontSize=12;whiteSpace=wrap;html=1;align=left;" parent="GPX1KlVqUzvG2VyEKRZV-24" vertex="1">
          <mxGeometry y="56" width="160" height="30" as="geometry" />
        </mxCell>
        <mxCell id="GPX1KlVqUzvG2VyEKRZV-28" value="Bob" style="swimlane;fontStyle=0;childLayout=stackLayout;horizontal=1;startSize=26;horizontalStack=0;resizeParent=1;resizeParentMax=0;resizeLast=0;collapsible=1;marginBottom=0;align=center;fontSize=14;" parent="1" vertex="1">
          <mxGeometry x="980" y="-1330" width="160" height="56" as="geometry" />
        </mxCell>
        <mxCell id="GPX1KlVqUzvG2VyEKRZV-29" value="Eve" style="swimlane;fontStyle=0;childLayout=stackLayout;horizontal=1;startSize=26;horizontalStack=0;resizeParent=1;resizeParentMax=0;resizeLast=0;collapsible=1;marginBottom=0;align=center;fontSize=14;" parent="1" vertex="1">
          <mxGeometry x="790" y="-1330" width="160" height="56" as="geometry" />
        </mxCell>
        <mxCell id="GPX1KlVqUzvG2VyEKRZV-30" value="Alice" style="swimlane;fontStyle=0;childLayout=stackLayout;horizontal=1;startSize=26;horizontalStack=0;resizeParent=1;resizeParentMax=0;resizeLast=0;collapsible=1;marginBottom=0;align=center;fontSize=14;" parent="1" vertex="1">
          <mxGeometry x="600" y="-1330" width="160" height="56" as="geometry" />
        </mxCell>
        <mxCell id="GPX1KlVqUzvG2VyEKRZV-35" value="" style="endArrow=block;html=1;rounded=0;exitX=0.5;exitY=1;exitDx=0;exitDy=0;endFill=0;entryX=0.25;entryY=0;entryDx=0;entryDy=0;" parent="1" source="GPX1KlVqUzvG2VyEKRZV-30" target="GPX1KlVqUzvG2VyEKRZV-24" edge="1">
          <mxGeometry width="50" height="50" relative="1" as="geometry">
            <mxPoint x="1120" y="-1180" as="sourcePoint" />
            <mxPoint x="1170" y="-1230" as="targetPoint" />
          </mxGeometry>
        </mxCell>
        <mxCell id="GPX1KlVqUzvG2VyEKRZV-37" value="" style="endArrow=block;html=1;rounded=0;exitX=0.5;exitY=1;exitDx=0;exitDy=0;endFill=0;entryX=0.5;entryY=0;entryDx=0;entryDy=0;" parent="1" source="GPX1KlVqUzvG2VyEKRZV-29" target="GPX1KlVqUzvG2VyEKRZV-24" edge="1">
          <mxGeometry width="50" height="50" relative="1" as="geometry">
            <mxPoint x="710" y="-1264" as="sourcePoint" />
            <mxPoint x="880" y="-1150" as="targetPoint" />
          </mxGeometry>
        </mxCell>
        <mxCell id="GPX1KlVqUzvG2VyEKRZV-38" value="" style="endArrow=block;html=1;rounded=0;exitX=0.5;exitY=1;exitDx=0;exitDy=0;endFill=0;entryX=0.75;entryY=0;entryDx=0;entryDy=0;" parent="1" source="GPX1KlVqUzvG2VyEKRZV-28" target="GPX1KlVqUzvG2VyEKRZV-24" edge="1">
          <mxGeometry width="50" height="50" relative="1" as="geometry">
            <mxPoint x="880" y="-1264" as="sourcePoint" />
            <mxPoint x="880" y="-1150" as="targetPoint" />
          </mxGeometry>
        </mxCell>
        <mxCell id="GPX1KlVqUzvG2VyEKRZV-39" value="besitzt" style="endArrow=none;html=1;rounded=0;exitX=0.5;exitY=0;exitDx=0;exitDy=0;entryX=0.5;entryY=1;entryDx=0;entryDy=0;" parent="1" source="GPX1KlVqUzvG2VyEKRZV-30" target="GPX1KlVqUzvG2VyEKRZV-18" edge="1">
          <mxGeometry width="50" height="50" relative="1" as="geometry">
            <mxPoint x="930" y="-1340" as="sourcePoint" />
            <mxPoint x="980" y="-1390" as="targetPoint" />
          </mxGeometry>
        </mxCell>
        <mxCell id="GPX1KlVqUzvG2VyEKRZV-40" value="" style="endArrow=none;html=1;rounded=0;exitX=0.5;exitY=0;exitDx=0;exitDy=0;entryX=0.75;entryY=1;entryDx=0;entryDy=0;" parent="1" source="GPX1KlVqUzvG2VyEKRZV-29" target="GPX1KlVqUzvG2VyEKRZV-18" edge="1">
          <mxGeometry width="50" height="50" relative="1" as="geometry">
            <mxPoint x="930" y="-1340" as="sourcePoint" />
            <mxPoint x="980" y="-1390" as="targetPoint" />
          </mxGeometry>
        </mxCell>
        <mxCell id="ksc56Fep-IioeLBklwjt-76" value="besitzt" style="edgeLabel;html=1;align=center;verticalAlign=middle;resizable=0;points=[];" vertex="1" connectable="0" parent="GPX1KlVqUzvG2VyEKRZV-40">
          <mxGeometry x="0.1335" relative="1" as="geometry">
            <mxPoint as="offset" />
          </mxGeometry>
        </mxCell>
        <mxCell id="GPX1KlVqUzvG2VyEKRZV-41" value="" style="endArrow=none;html=1;rounded=0;exitX=0.5;exitY=0;exitDx=0;exitDy=0;entryX=0.25;entryY=1;entryDx=0;entryDy=0;" parent="1" source="GPX1KlVqUzvG2VyEKRZV-29" target="GPX1KlVqUzvG2VyEKRZV-14" edge="1">
          <mxGeometry width="50" height="50" relative="1" as="geometry">
            <mxPoint x="930" y="-1340" as="sourcePoint" />
            <mxPoint x="1020" y="-1370" as="targetPoint" />
          </mxGeometry>
        </mxCell>
        <mxCell id="ksc56Fep-IioeLBklwjt-77" value="besitzt" style="edgeLabel;html=1;align=center;verticalAlign=middle;resizable=0;points=[];" vertex="1" connectable="0" parent="GPX1KlVqUzvG2VyEKRZV-41">
          <mxGeometry x="0.165" relative="1" as="geometry">
            <mxPoint as="offset" />
          </mxGeometry>
        </mxCell>
        <mxCell id="GPX1KlVqUzvG2VyEKRZV-42" value="" style="endArrow=none;html=1;rounded=0;exitX=0.5;exitY=0;exitDx=0;exitDy=0;entryX=0.5;entryY=1;entryDx=0;entryDy=0;" parent="1" source="GPX1KlVqUzvG2VyEKRZV-28" target="GPX1KlVqUzvG2VyEKRZV-14" edge="1">
          <mxGeometry width="50" height="50" relative="1" as="geometry">
            <mxPoint x="1050" y="-1350" as="sourcePoint" />
            <mxPoint x="1080" y="-1380" as="targetPoint" />
          </mxGeometry>
        </mxCell>
        <mxCell id="ksc56Fep-IioeLBklwjt-78" value="besitzt" style="edgeLabel;html=1;align=center;verticalAlign=middle;resizable=0;points=[];" vertex="1" connectable="0" parent="GPX1KlVqUzvG2VyEKRZV-42">
          <mxGeometry x="0.0953" y="-1" relative="1" as="geometry">
            <mxPoint as="offset" />
          </mxGeometry>
        </mxCell>
        <mxCell id="GPX1KlVqUzvG2VyEKRZV-43" value="Ãbungsszenario" style="swimlane;fontStyle=0;childLayout=stackLayout;horizontal=1;startSize=26;horizontalStack=0;resizeParent=1;resizeParentMax=0;resizeLast=0;collapsible=1;marginBottom=0;align=center;fontSize=14;" parent="1" vertex="1">
          <mxGeometry x="1350" y="-1085" width="160" height="56" as="geometry" />
        </mxCell>
        <mxCell id="GPX1KlVqUzvG2VyEKRZV-44" value="schwierigkeitsgrad" style="text;strokeColor=none;fillColor=none;spacingLeft=4;spacingRight=4;overflow=hidden;rotatable=0;points=[[0,0.5],[1,0.5]];portConstraint=eastwest;fontSize=12;whiteSpace=wrap;html=1;" parent="GPX1KlVqUzvG2VyEKRZV-43" vertex="1">
          <mxGeometry y="26" width="160" height="30" as="geometry" />
        </mxCell>
        <mxCell id="GPX1KlVqUzvG2VyEKRZV-45" value="" style="endArrow=none;html=1;rounded=0;exitX=1;exitY=0.5;exitDx=0;exitDy=0;entryX=0;entryY=0.5;entryDx=0;entryDy=0;" parent="1" source="GPX1KlVqUzvG2VyEKRZV-24" target="GPX1KlVqUzvG2VyEKRZV-43" edge="1">
          <mxGeometry width="50" height="50" relative="1" as="geometry">
            <mxPoint x="1010" y="-1080" as="sourcePoint" />
            <mxPoint x="1310" y="-1050" as="targetPoint" />
          </mxGeometry>
        </mxCell>
        <mxCell id="GPX1KlVqUzvG2VyEKRZV-125" value="ist Teil von" style="edgeLabel;html=1;align=center;verticalAlign=middle;resizable=0;points=[];" parent="GPX1KlVqUzvG2VyEKRZV-45" vertex="1" connectable="0">
          <mxGeometry x="-0.032" relative="1" as="geometry">
            <mxPoint x="7" y="-2" as="offset" />
          </mxGeometry>
        </mxCell>
        <mxCell id="GPX1KlVqUzvG2VyEKRZV-50" value="" style="endArrow=none;html=1;rounded=0;exitX=0.5;exitY=0;exitDx=0;exitDy=0;entryX=0;entryY=0.5;entryDx=0;entryDy=0;" parent="1" source="GPX1KlVqUzvG2VyEKRZV-18" target="GPX1KlVqUzvG2VyEKRZV-11" edge="1">
          <mxGeometry width="50" height="50" relative="1" as="geometry">
            <mxPoint x="990" y="-1360" as="sourcePoint" />
            <mxPoint x="1040" y="-1410" as="targetPoint" />
            <Array as="points">
              <mxPoint x="680" y="-1552" />
            </Array>
          </mxGeometry>
        </mxCell>
        <mxCell id="GPX1KlVqUzvG2VyEKRZV-116" value="sendet Photon auf" style="edgeLabel;html=1;align=center;verticalAlign=middle;resizable=0;points=[];" parent="GPX1KlVqUzvG2VyEKRZV-50" vertex="1" connectable="0">
          <mxGeometry x="-0.198" y="1" relative="1" as="geometry">
            <mxPoint x="1" y="17" as="offset" />
          </mxGeometry>
        </mxCell>
        <mxCell id="GPX1KlVqUzvG2VyEKRZV-51" value="" style="endArrow=none;html=1;rounded=0;exitX=0.5;exitY=0;exitDx=0;exitDy=0;entryX=1;entryY=0.5;entryDx=0;entryDy=0;" parent="1" source="GPX1KlVqUzvG2VyEKRZV-14" target="GPX1KlVqUzvG2VyEKRZV-11" edge="1">
          <mxGeometry width="50" height="50" relative="1" as="geometry">
            <mxPoint x="990" y="-1360" as="sourcePoint" />
            <mxPoint x="1040" y="-1410" as="targetPoint" />
            <Array as="points">
              <mxPoint x="1060" y="-1552" />
            </Array>
          </mxGeometry>
        </mxCell>
        <mxCell id="GPX1KlVqUzvG2VyEKRZV-117" value="detektiert Photon&amp;nbsp;auf" style="edgeLabel;html=1;align=center;verticalAlign=middle;resizable=0;points=[];" parent="GPX1KlVqUzvG2VyEKRZV-51" vertex="1" connectable="0">
          <mxGeometry x="-0.3663" y="1" relative="1" as="geometry">
            <mxPoint x="1" as="offset" />
          </mxGeometry>
        </mxCell>
        <mxCell id="GPX1KlVqUzvG2VyEKRZV-52" value="" style="endArrow=none;html=1;rounded=0;exitX=0;exitY=0.5;exitDx=0;exitDy=0;entryX=0.5;entryY=1;entryDx=0;entryDy=0;" parent="1" source="GPX1KlVqUzvG2VyEKRZV-18" target="GPX1KlVqUzvG2VyEKRZV-12" edge="1">
          <mxGeometry width="50" height="50" relative="1" as="geometry">
            <mxPoint x="990" y="-1570" as="sourcePoint" />
            <mxPoint x="1040" y="-1620" as="targetPoint" />
            <Array as="points">
              <mxPoint x="470" y="-1432" />
            </Array>
          </mxGeometry>
        </mxCell>
        <mxCell id="GPX1KlVqUzvG2VyEKRZV-124" value="sendet" style="edgeLabel;html=1;align=center;verticalAlign=middle;resizable=0;points=[];" parent="GPX1KlVqUzvG2VyEKRZV-52" vertex="1" connectable="0">
          <mxGeometry x="-0.2072" relative="1" as="geometry">
            <mxPoint as="offset" />
          </mxGeometry>
        </mxCell>
        <mxCell id="GPX1KlVqUzvG2VyEKRZV-53" value="" style="endArrow=none;html=1;rounded=0;exitX=0.5;exitY=0;exitDx=0;exitDy=0;entryX=0.5;entryY=1;entryDx=0;entryDy=0;" parent="1" source="GPX1KlVqUzvG2VyEKRZV-16" target="GPX1KlVqUzvG2VyEKRZV-24" edge="1">
          <mxGeometry width="50" height="50" relative="1" as="geometry">
            <mxPoint x="1040" y="-1030" as="sourcePoint" />
            <mxPoint x="890" y="-980" as="targetPoint" />
          </mxGeometry>
        </mxCell>
        <mxCell id="GPX1KlVqUzvG2VyEKRZV-99" value="nehmen Teil" style="edgeLabel;html=1;align=center;verticalAlign=middle;resizable=0;points=[];" parent="GPX1KlVqUzvG2VyEKRZV-53" vertex="1" connectable="0">
          <mxGeometry x="-0.1401" y="-1" relative="1" as="geometry">
            <mxPoint as="offset" />
          </mxGeometry>
        </mxCell>
        <mxCell id="GPX1KlVqUzvG2VyEKRZV-54" value="Nachricht" style="swimlane;fontStyle=0;childLayout=stackLayout;horizontal=1;startSize=26;horizontalStack=0;resizeParent=1;resizeParentMax=0;resizeLast=0;collapsible=1;marginBottom=0;align=center;fontSize=14;" parent="1" vertex="1">
          <mxGeometry x="790" y="-760" width="160" height="116" as="geometry" />
        </mxCell>
        <mxCell id="GPX1KlVqUzvG2VyEKRZV-85" value="type" style="text;strokeColor=none;fillColor=none;spacingLeft=4;spacingRight=4;overflow=hidden;rotatable=0;points=[[0,0.5],[1,0.5]];portConstraint=eastwest;fontSize=12;whiteSpace=wrap;html=1;align=left;" parent="GPX1KlVqUzvG2VyEKRZV-54" vertex="1">
          <mxGeometry y="26" width="160" height="30" as="geometry" />
        </mxCell>
        <mxCell id="GPX1KlVqUzvG2VyEKRZV-107" value="sender/empfÃ¤nger" style="text;strokeColor=none;fillColor=none;spacingLeft=4;spacingRight=4;overflow=hidden;rotatable=0;points=[[0,0.5],[1,0.5]];portConstraint=eastwest;fontSize=12;whiteSpace=wrap;html=1;align=left;" parent="GPX1KlVqUzvG2VyEKRZV-54" vertex="1">
          <mxGeometry y="56" width="160" height="30" as="geometry" />
        </mxCell>
        <mxCell id="GPX1KlVqUzvG2VyEKRZV-86" value="nachricht" style="text;strokeColor=none;fillColor=none;spacingLeft=4;spacingRight=4;overflow=hidden;rotatable=0;points=[[0,0.5],[1,0.5]];portConstraint=eastwest;fontSize=12;whiteSpace=wrap;html=1;align=left;" parent="GPX1KlVqUzvG2VyEKRZV-54" vertex="1">
          <mxGeometry y="86" width="160" height="30" as="geometry" />
        </mxCell>
        <mxCell id="GPX1KlVqUzvG2VyEKRZV-55" value="" style="endArrow=none;html=1;rounded=0;exitX=0.5;exitY=0;exitDx=0;exitDy=0;entryX=0.5;entryY=1;entryDx=0;entryDy=0;" parent="1" source="GPX1KlVqUzvG2VyEKRZV-54" target="GPX1KlVqUzvG2VyEKRZV-16" edge="1">
          <mxGeometry width="50" height="50" relative="1" as="geometry">
            <mxPoint x="1020" y="-1000" as="sourcePoint" />
            <mxPoint x="1070" y="-1050" as="targetPoint" />
          </mxGeometry>
        </mxCell>
        <mxCell id="GPX1KlVqUzvG2VyEKRZV-104" value="beinhaltet" style="edgeLabel;html=1;align=center;verticalAlign=middle;resizable=0;points=[];" parent="GPX1KlVqUzvG2VyEKRZV-55" vertex="1" connectable="0">
          <mxGeometry x="0.0962" y="1" relative="1" as="geometry">
            <mxPoint x="1" as="offset" />
          </mxGeometry>
        </mxCell>
        <mxCell id="GPX1KlVqUzvG2VyEKRZV-56" value="Rechner" style="swimlane;fontStyle=0;childLayout=stackLayout;horizontal=1;startSize=26;horizontalStack=0;resizeParent=1;resizeParentMax=0;resizeLast=0;collapsible=1;marginBottom=0;align=center;fontSize=14;" parent="1" vertex="1">
          <mxGeometry x="280" y="-780" width="160" height="56" as="geometry" />
        </mxCell>
        <mxCell id="GPX1KlVqUzvG2VyEKRZV-57" value="" style="endArrow=none;html=1;rounded=0;exitX=0.5;exitY=0;exitDx=0;exitDy=0;entryX=0.5;entryY=1;entryDx=0;entryDy=0;" parent="1" source="GPX1KlVqUzvG2VyEKRZV-56" target="ksc56Fep-IioeLBklwjt-12" edge="1">
          <mxGeometry width="50" height="50" relative="1" as="geometry">
            <mxPoint x="710" y="-1080" as="sourcePoint" />
            <mxPoint x="570" y="-1061" as="targetPoint" />
          </mxGeometry>
        </mxCell>
        <mxCell id="GPX1KlVqUzvG2VyEKRZV-90" value="befindet sich an" style="edgeLabel;html=1;align=center;verticalAlign=middle;resizable=0;points=[];" parent="GPX1KlVqUzvG2VyEKRZV-57" vertex="1" connectable="0">
          <mxGeometry x="-0.3058" y="-2" relative="1" as="geometry">
            <mxPoint x="-2" y="-18" as="offset" />
          </mxGeometry>
        </mxCell>
        <mxCell id="GPX1KlVqUzvG2VyEKRZV-58" value="Wiki" style="swimlane;fontStyle=0;childLayout=stackLayout;horizontal=1;startSize=26;horizontalStack=0;resizeParent=1;resizeParentMax=0;resizeLast=0;collapsible=1;marginBottom=0;align=center;fontSize=14;" parent="1" vertex="1">
          <mxGeometry x="280" y="-620" width="160" height="56" as="geometry" />
        </mxCell>
        <mxCell id="GPX1KlVqUzvG2VyEKRZV-59" value="" style="endArrow=none;html=1;rounded=0;exitX=0.5;exitY=0;exitDx=0;exitDy=0;entryX=0.5;entryY=1;entryDx=0;entryDy=0;" parent="1" source="GPX1KlVqUzvG2VyEKRZV-58" target="GPX1KlVqUzvG2VyEKRZV-56" edge="1">
          <mxGeometry width="50" height="50" relative="1" as="geometry">
            <mxPoint x="710" y="-630" as="sourcePoint" />
            <mxPoint x="760" y="-680" as="targetPoint" />
          </mxGeometry>
        </mxCell>
        <mxCell id="GPX1KlVqUzvG2VyEKRZV-93" value="besitzt" style="edgeLabel;html=1;align=center;verticalAlign=middle;resizable=0;points=[];" parent="GPX1KlVqUzvG2VyEKRZV-59" vertex="1" connectable="0">
          <mxGeometry x="0.1154" y="-1" relative="1" as="geometry">
            <mxPoint x="-1" as="offset" />
          </mxGeometry>
        </mxCell>
        <mxCell id="GPX1KlVqUzvG2VyEKRZV-60" value="Eintrag" style="swimlane;fontStyle=0;childLayout=stackLayout;horizontal=1;startSize=26;horizontalStack=0;resizeParent=1;resizeParentMax=0;resizeLast=0;collapsible=1;marginBottom=0;align=center;fontSize=14;" parent="1" vertex="1">
          <mxGeometry x="-60" y="-620" width="160" height="56" as="geometry" />
        </mxCell>
        <mxCell id="GPX1KlVqUzvG2VyEKRZV-61" value="" style="endArrow=none;html=1;rounded=0;exitX=1;exitY=0.5;exitDx=0;exitDy=0;entryX=0;entryY=0.5;entryDx=0;entryDy=0;" parent="1" source="GPX1KlVqUzvG2VyEKRZV-60" target="GPX1KlVqUzvG2VyEKRZV-58" edge="1">
          <mxGeometry width="50" height="50" relative="1" as="geometry">
            <mxPoint x="710" y="-770" as="sourcePoint" />
            <mxPoint x="760" y="-820" as="targetPoint" />
          </mxGeometry>
        </mxCell>
        <mxCell id="GPX1KlVqUzvG2VyEKRZV-96" value="enthÃ¤lt" style="edgeLabel;html=1;align=center;verticalAlign=middle;resizable=0;points=[];" parent="GPX1KlVqUzvG2VyEKRZV-61" vertex="1" connectable="0">
          <mxGeometry x="-0.125" y="2" relative="1" as="geometry">
            <mxPoint x="10" as="offset" />
          </mxGeometry>
        </mxCell>
        <mxCell id="GPX1KlVqUzvG2VyEKRZV-62" value="Handlungsschritt" style="swimlane;fontStyle=0;childLayout=stackLayout;horizontal=1;startSize=26;horizontalStack=0;resizeParent=1;resizeParentMax=0;resizeLast=0;collapsible=1;marginBottom=0;align=center;fontSize=14;" parent="1" vertex="1">
          <mxGeometry x="1350" y="-770" width="160" height="56" as="geometry" />
        </mxCell>
        <mxCell id="GPX1KlVqUzvG2VyEKRZV-63" value="Phase" style="swimlane;fontStyle=0;childLayout=stackLayout;horizontal=1;startSize=26;horizontalStack=0;resizeParent=1;resizeParentMax=0;resizeLast=0;collapsible=1;marginBottom=0;align=center;fontSize=14;" parent="1" vertex="1">
          <mxGeometry x="1850" y="-770" width="160" height="56" as="geometry" />
        </mxCell>
        <mxCell id="GPX1KlVqUzvG2VyEKRZV-64" value="" style="endArrow=none;html=1;rounded=0;entryX=0;entryY=0.5;entryDx=0;entryDy=0;exitX=1;exitY=0.5;exitDx=0;exitDy=0;" parent="1" source="-kzUQ8mjugvhLdc6v-UZ-4" target="GPX1KlVqUzvG2VyEKRZV-63" edge="1">
          <mxGeometry width="50" height="50" relative="1" as="geometry">
            <mxPoint x="1650" y="-752" as="sourcePoint" />
            <mxPoint x="1620" y="-890" as="targetPoint" />
          </mxGeometry>
        </mxCell>
        <mxCell id="GPX1KlVqUzvG2VyEKRZV-156" value="besteht" style="edgeLabel;html=1;align=center;verticalAlign=middle;resizable=0;points=[];" parent="GPX1KlVqUzvG2VyEKRZV-64" vertex="1" connectable="0">
          <mxGeometry x="-0.1374" relative="1" as="geometry">
            <mxPoint x="10" as="offset" />
          </mxGeometry>
        </mxCell>
        <mxCell id="GPX1KlVqUzvG2VyEKRZV-65" value="" style="endArrow=none;html=1;rounded=0;exitX=0;exitY=0.5;exitDx=0;exitDy=0;entryX=1;entryY=0.75;entryDx=0;entryDy=0;" parent="1" source="GPX1KlVqUzvG2VyEKRZV-62" target="GPX1KlVqUzvG2VyEKRZV-24" edge="1">
          <mxGeometry width="50" height="50" relative="1" as="geometry">
            <mxPoint x="1640" y="-760" as="sourcePoint" />
            <mxPoint x="1260" y="-980" as="targetPoint" />
            <Array as="points">
              <mxPoint x="1200" y="-742" />
              <mxPoint x="1200" y="-990" />
              <mxPoint x="1200" y="-1035" />
            </Array>
          </mxGeometry>
        </mxCell>
        <mxCell id="GPX1KlVqUzvG2VyEKRZV-153" value="fÃ¼hrt aus" style="edgeLabel;html=1;align=center;verticalAlign=middle;resizable=0;points=[];" parent="GPX1KlVqUzvG2VyEKRZV-65" vertex="1" connectable="0">
          <mxGeometry x="-0.147" y="1" relative="1" as="geometry">
            <mxPoint as="offset" />
          </mxGeometry>
        </mxCell>
        <mxCell id="GPX1KlVqUzvG2VyEKRZV-66" value="Variante" style="swimlane;fontStyle=0;childLayout=stackLayout;horizontal=1;startSize=26;horizontalStack=0;resizeParent=1;resizeParentMax=0;resizeLast=0;collapsible=1;marginBottom=0;align=center;fontSize=14;" parent="1" vertex="1">
          <mxGeometry x="1350" y="-1340" width="160" height="56" as="geometry" />
        </mxCell>
        <mxCell id="GPX1KlVqUzvG2VyEKRZV-67" value="" style="endArrow=none;html=1;rounded=0;exitX=0.5;exitY=0;exitDx=0;exitDy=0;entryX=0.5;entryY=1;entryDx=0;entryDy=0;" parent="1" source="GPX1KlVqUzvG2VyEKRZV-43" target="GPX1KlVqUzvG2VyEKRZV-66" edge="1">
          <mxGeometry width="50" height="50" relative="1" as="geometry">
            <mxPoint x="1590" y="-1220" as="sourcePoint" />
            <mxPoint x="1690" y="-1280" as="targetPoint" />
            <Array as="points">
              <mxPoint x="1430" y="-1170" />
            </Array>
          </mxGeometry>
        </mxCell>
        <mxCell id="GPX1KlVqUzvG2VyEKRZV-138" value="beinhaltet" style="edgeLabel;html=1;align=center;verticalAlign=middle;resizable=0;points=[];" parent="GPX1KlVqUzvG2VyEKRZV-67" vertex="1" connectable="0">
          <mxGeometry x="0.0976" y="-1" relative="1" as="geometry">
            <mxPoint x="-1" y="-1" as="offset" />
          </mxGeometry>
        </mxCell>
        <mxCell id="GPX1KlVqUzvG2VyEKRZV-68" value="" style="endArrow=none;html=1;rounded=0;exitX=0.5;exitY=0;exitDx=0;exitDy=0;entryX=0.5;entryY=1;entryDx=0;entryDy=0;" parent="1" source="GPX1KlVqUzvG2VyEKRZV-63" target="GPX1KlVqUzvG2VyEKRZV-69" edge="1">
          <mxGeometry width="50" height="50" relative="1" as="geometry">
            <mxPoint x="1759.42" y="-430" as="sourcePoint" />
            <mxPoint x="1809.42" y="-1050" as="targetPoint" />
            <Array as="points" />
          </mxGeometry>
        </mxCell>
        <mxCell id="GPX1KlVqUzvG2VyEKRZV-144" value="besteht" style="edgeLabel;html=1;align=center;verticalAlign=middle;resizable=0;points=[];" parent="GPX1KlVqUzvG2VyEKRZV-68" vertex="1" connectable="0">
          <mxGeometry x="0.1318" relative="1" as="geometry">
            <mxPoint y="20" as="offset" />
          </mxGeometry>
        </mxCell>
        <mxCell id="GPX1KlVqUzvG2VyEKRZV-69" value="Protokoll" style="swimlane;fontStyle=0;childLayout=stackLayout;horizontal=1;startSize=26;horizontalStack=0;resizeParent=1;resizeParentMax=0;resizeLast=0;collapsible=1;marginBottom=0;align=center;fontSize=14;" parent="1" vertex="1">
          <mxGeometry x="1850" y="-1085" width="160" height="56" as="geometry" />
        </mxCell>
        <mxCell id="GPX1KlVqUzvG2VyEKRZV-71" value="Aufzeichnung" style="swimlane;fontStyle=0;childLayout=stackLayout;horizontal=1;startSize=26;horizontalStack=0;resizeParent=1;resizeParentMax=0;resizeLast=0;collapsible=1;marginBottom=0;align=center;fontSize=14;" parent="1" vertex="1">
          <mxGeometry x="1350" y="-940" width="160" height="56" as="geometry" />
        </mxCell>
        <mxCell id="GPX1KlVqUzvG2VyEKRZV-77" value="beinhaltet" style="endArrow=none;html=1;rounded=0;exitX=0.5;exitY=0;exitDx=0;exitDy=0;entryX=0.5;entryY=1;entryDx=0;entryDy=0;" parent="1" source="GPX1KlVqUzvG2VyEKRZV-62" target="GPX1KlVqUzvG2VyEKRZV-71" edge="1">
          <mxGeometry width="50" height="50" relative="1" as="geometry">
            <mxPoint x="1490" y="-910" as="sourcePoint" />
            <mxPoint x="1540" y="-960" as="targetPoint" />
          </mxGeometry>
        </mxCell>
        <mxCell id="GPX1KlVqUzvG2VyEKRZV-78" value="" style="endArrow=none;html=1;rounded=0;exitX=0.5;exitY=0;exitDx=0;exitDy=0;entryX=0.5;entryY=1;entryDx=0;entryDy=0;" parent="1" source="GPX1KlVqUzvG2VyEKRZV-71" target="GPX1KlVqUzvG2VyEKRZV-43" edge="1">
          <mxGeometry width="50" height="50" relative="1" as="geometry">
            <mxPoint x="1490" y="-910" as="sourcePoint" />
            <mxPoint x="1440" y="-1000" as="targetPoint" />
          </mxGeometry>
        </mxCell>
        <mxCell id="GPX1KlVqUzvG2VyEKRZV-145" value="besitzt" style="edgeLabel;html=1;align=center;verticalAlign=middle;resizable=0;points=[];" parent="GPX1KlVqUzvG2VyEKRZV-78" vertex="1" connectable="0">
          <mxGeometry x="0.098" y="-2" relative="1" as="geometry">
            <mxPoint x="-2" as="offset" />
          </mxGeometry>
        </mxCell>
        <mxCell id="GPX1KlVqUzvG2VyEKRZV-79" value="umsetzen" style="endArrow=none;html=1;rounded=0;entryX=0;entryY=0.5;entryDx=0;entryDy=0;exitX=1;exitY=0.5;exitDx=0;exitDy=0;" parent="1" source="GPX1KlVqUzvG2VyEKRZV-43" target="GPX1KlVqUzvG2VyEKRZV-69" edge="1">
          <mxGeometry width="50" height="50" relative="1" as="geometry">
            <mxPoint x="1550" y="-1060" as="sourcePoint" />
            <mxPoint x="1060" y="-1230" as="targetPoint" />
          </mxGeometry>
        </mxCell>
        <mxCell id="GPX1KlVqUzvG2VyEKRZV-129" value="" style="endArrow=none;html=1;rounded=0;exitX=0.5;exitY=0;exitDx=0;exitDy=0;entryX=0;entryY=0.25;entryDx=0;entryDy=0;" parent="1" source="ksc56Fep-IioeLBklwjt-1" target="GPX1KlVqUzvG2VyEKRZV-43" edge="1">
          <mxGeometry width="50" height="50" relative="1" as="geometry">
            <mxPoint x="570" y="-1117" as="sourcePoint" />
            <mxPoint x="1280" y="-1110" as="targetPoint" />
            <Array as="points">
              <mxPoint x="360" y="-1180" />
              <mxPoint x="360" y="-1670" />
              <mxPoint x="1200" y="-1670" />
              <mxPoint x="1200" y="-1071" />
            </Array>
          </mxGeometry>
        </mxCell>
        <mxCell id="ksc56Fep-IioeLBklwjt-31" value="erstellt" style="edgeLabel;html=1;align=center;verticalAlign=middle;resizable=0;points=[];" vertex="1" connectable="0" parent="GPX1KlVqUzvG2VyEKRZV-129">
          <mxGeometry x="-0.0514" relative="1" as="geometry">
            <mxPoint as="offset" />
          </mxGeometry>
        </mxCell>
        <mxCell id="-kzUQ8mjugvhLdc6v-UZ-1" value="1" style="text;html=1;align=center;verticalAlign=middle;resizable=0;points=[];autosize=1;strokeColor=none;fillColor=none;" parent="1" vertex="1">
          <mxGeometry x="440" y="-1087" width="30" height="30" as="geometry" />
        </mxCell>
        <mxCell id="-kzUQ8mjugvhLdc6v-UZ-3" value="1..3" style="text;html=1;align=center;verticalAlign=middle;resizable=0;points=[];autosize=1;strokeColor=none;fillColor=none;" parent="1" vertex="1">
          <mxGeometry x="355" y="-968" width="40" height="30" as="geometry" />
        </mxCell>
        <mxCell id="-kzUQ8mjugvhLdc6v-UZ-4" value="Zug" style="swimlane;fontStyle=0;childLayout=stackLayout;horizontal=1;startSize=26;horizontalStack=0;resizeParent=1;resizeParentMax=0;resizeLast=0;collapsible=1;marginBottom=0;align=center;fontSize=14;" parent="1" vertex="1">
          <mxGeometry x="1600" y="-770" width="160" height="56" as="geometry" />
        </mxCell>
        <mxCell id="-kzUQ8mjugvhLdc6v-UZ-5" value="" style="endArrow=none;html=1;rounded=0;entryX=0;entryY=0.5;entryDx=0;entryDy=0;exitX=1;exitY=0.5;exitDx=0;exitDy=0;" parent="1" source="GPX1KlVqUzvG2VyEKRZV-62" target="-kzUQ8mjugvhLdc6v-UZ-4" edge="1">
          <mxGeometry width="50" height="50" relative="1" as="geometry">
            <mxPoint x="1480" y="-700" as="sourcePoint" />
            <mxPoint x="1560" y="-700" as="targetPoint" />
          </mxGeometry>
        </mxCell>
        <mxCell id="-kzUQ8mjugvhLdc6v-UZ-6" value="besteht" style="edgeLabel;html=1;align=center;verticalAlign=middle;resizable=0;points=[];" parent="-kzUQ8mjugvhLdc6v-UZ-5" vertex="1" connectable="0">
          <mxGeometry x="-0.1374" relative="1" as="geometry">
            <mxPoint x="10" as="offset" />
          </mxGeometry>
        </mxCell>
        <mxCell id="ksc56Fep-IioeLBklwjt-1" value="Lobby" style="swimlane;fontStyle=0;childLayout=stackLayout;horizontal=1;startSize=26;horizontalStack=0;resizeParent=1;resizeParentMax=0;resizeLast=0;collapsible=1;marginBottom=0;align=center;fontSize=14;" vertex="1" parent="1">
          <mxGeometry x="280" y="-1087" width="160" height="56" as="geometry" />
        </mxCell>
        <mxCell id="ksc56Fep-IioeLBklwjt-4" value="Protokoll kann in mehreren Ãbungsszenarien gespielt werden" style="shape=note;size=20;whiteSpace=wrap;html=1;" vertex="1" parent="1">
          <mxGeometry x="1550" y="-1187" width="100" height="100" as="geometry" />
        </mxCell>
        <mxCell id="ksc56Fep-IioeLBklwjt-12" value="Benutzergruppe" style="swimlane;fontStyle=0;childLayout=stackLayout;horizontal=1;startSize=26;horizontalStack=0;resizeParent=1;resizeParentMax=0;resizeLast=0;collapsible=1;marginBottom=0;align=center;fontSize=14;" vertex="1" parent="1">
          <mxGeometry x="280" y="-938" width="160" height="56" as="geometry" />
        </mxCell>
        <mxCell id="ksc56Fep-IioeLBklwjt-13" value="Benutzer" style="swimlane;fontStyle=0;childLayout=stackLayout;horizontal=1;startSize=26;horizontalStack=0;resizeParent=1;resizeParentMax=0;resizeLast=0;collapsible=1;marginBottom=0;align=center;fontSize=14;" vertex="1" parent="1">
          <mxGeometry x="-60" y="-938" width="160" height="56" as="geometry" />
        </mxCell>
        <mxCell id="ksc56Fep-IioeLBklwjt-14" value="" style="endArrow=none;html=1;rounded=0;entryX=1;entryY=0.5;entryDx=0;entryDy=0;exitX=0;exitY=0.5;exitDx=0;exitDy=0;endFill=0;startArrow=diamondThin;startFill=1;" edge="1" parent="1" source="ksc56Fep-IioeLBklwjt-12" target="ksc56Fep-IioeLBklwjt-13">
          <mxGeometry width="50" height="50" relative="1" as="geometry">
            <mxPoint x="250" y="-1010" as="sourcePoint" />
            <mxPoint x="300" y="-1060" as="targetPoint" />
          </mxGeometry>
        </mxCell>
        <mxCell id="ksc56Fep-IioeLBklwjt-15" value="ist Teil" style="edgeLabel;html=1;align=center;verticalAlign=middle;resizable=0;points=[];" vertex="1" connectable="0" parent="ksc56Fep-IioeLBklwjt-14">
          <mxGeometry x="0.101" y="1" relative="1" as="geometry">
            <mxPoint as="offset" />
          </mxGeometry>
        </mxCell>
        <mxCell id="ksc56Fep-IioeLBklwjt-16" value="" style="endArrow=none;html=1;rounded=0;exitX=0.5;exitY=1;exitDx=0;exitDy=0;entryX=0.5;entryY=0;entryDx=0;entryDy=0;" edge="1" parent="1" source="ksc56Fep-IioeLBklwjt-1" target="ksc56Fep-IioeLBklwjt-12">
          <mxGeometry width="50" height="50" relative="1" as="geometry">
            <mxPoint x="450" y="-1090" as="sourcePoint" />
            <mxPoint x="500" y="-1140" as="targetPoint" />
          </mxGeometry>
        </mxCell>
        <mxCell id="ksc56Fep-IioeLBklwjt-21" value="nimmt teil" style="edgeLabel;html=1;align=center;verticalAlign=middle;resizable=0;points=[];" vertex="1" connectable="0" parent="ksc56Fep-IioeLBklwjt-16">
          <mxGeometry x="-0.1792" y="2" relative="1" as="geometry">
            <mxPoint as="offset" />
          </mxGeometry>
        </mxCell>
        <mxCell id="ksc56Fep-IioeLBklwjt-17" value="" style="endArrow=none;html=1;rounded=0;exitX=1;exitY=0.5;exitDx=0;exitDy=0;entryX=0;entryY=0.5;entryDx=0;entryDy=0;" edge="1" parent="1" source="ksc56Fep-IioeLBklwjt-1" target="GPX1KlVqUzvG2VyEKRZV-24">
          <mxGeometry width="50" height="50" relative="1" as="geometry">
            <mxPoint x="730" y="-1110" as="sourcePoint" />
            <mxPoint x="730" y="-1010" as="targetPoint" />
          </mxGeometry>
        </mxCell>
        <mxCell id="ksc56Fep-IioeLBklwjt-19" value="verwaltet" style="edgeLabel;html=1;align=center;verticalAlign=middle;resizable=0;points=[];" vertex="1" connectable="0" parent="ksc56Fep-IioeLBklwjt-17">
          <mxGeometry x="0.0686" y="1" relative="1" as="geometry">
            <mxPoint as="offset" />
          </mxGeometry>
        </mxCell>
        <mxCell id="ksc56Fep-IioeLBklwjt-20" value="2..3" style="text;html=1;align=center;verticalAlign=middle;resizable=0;points=[];autosize=1;strokeColor=none;fillColor=none;" vertex="1" parent="1">
          <mxGeometry x="750" y="-1087" width="40" height="30" as="geometry" />
        </mxCell>
        <mxCell id="ksc56Fep-IioeLBklwjt-22" value="1" style="text;html=1;align=center;verticalAlign=middle;resizable=0;points=[];autosize=1;strokeColor=none;fillColor=none;" vertex="1" parent="1">
          <mxGeometry x="360" y="-1031" width="30" height="30" as="geometry" />
        </mxCell>
        <mxCell id="ksc56Fep-IioeLBklwjt-23" value="1..n" style="text;html=1;align=center;verticalAlign=middle;resizable=0;points=[];autosize=1;strokeColor=none;fillColor=none;" vertex="1" parent="1">
          <mxGeometry x="100" y="-940" width="40" height="30" as="geometry" />
        </mxCell>
        <mxCell id="ksc56Fep-IioeLBklwjt-24" value="1" style="text;html=1;align=center;verticalAlign=middle;resizable=0;points=[];autosize=1;strokeColor=none;fillColor=none;" vertex="1" parent="1">
          <mxGeometry x="250" y="-940" width="30" height="30" as="geometry" />
        </mxCell>
        <mxCell id="ksc56Fep-IioeLBklwjt-25" value="1" style="text;html=1;align=center;verticalAlign=middle;resizable=0;points=[];autosize=1;strokeColor=none;fillColor=none;" vertex="1" parent="1">
          <mxGeometry x="360" y="-882" width="30" height="30" as="geometry" />
        </mxCell>
        <mxCell id="ksc56Fep-IioeLBklwjt-26" value="1" style="text;html=1;align=center;verticalAlign=middle;resizable=0;points=[];autosize=1;strokeColor=none;fillColor=none;" vertex="1" parent="1">
          <mxGeometry x="360" y="-810" width="30" height="30" as="geometry" />
        </mxCell>
        <mxCell id="ksc56Fep-IioeLBklwjt-27" value="1" style="text;html=1;align=center;verticalAlign=middle;resizable=0;points=[];autosize=1;strokeColor=none;fillColor=none;" vertex="1" parent="1">
          <mxGeometry x="360" y="-724" width="30" height="30" as="geometry" />
        </mxCell>
        <mxCell id="ksc56Fep-IioeLBklwjt-28" value="1" style="text;html=1;align=center;verticalAlign=middle;resizable=0;points=[];autosize=1;strokeColor=none;fillColor=none;" vertex="1" parent="1">
          <mxGeometry x="360" y="-650" width="30" height="30" as="geometry" />
        </mxCell>
        <mxCell id="ksc56Fep-IioeLBklwjt-29" value="1" style="text;html=1;align=center;verticalAlign=middle;resizable=0;points=[];autosize=1;strokeColor=none;fillColor=none;" vertex="1" parent="1">
          <mxGeometry x="250" y="-620" width="30" height="30" as="geometry" />
        </mxCell>
        <mxCell id="ksc56Fep-IioeLBklwjt-30" value="1..n" style="text;html=1;align=center;verticalAlign=middle;resizable=0;points=[];autosize=1;strokeColor=none;fillColor=none;" vertex="1" parent="1">
          <mxGeometry x="100" y="-620" width="40" height="30" as="geometry" />
        </mxCell>
        <mxCell id="ksc56Fep-IioeLBklwjt-32" value="1" style="text;html=1;align=center;verticalAlign=middle;resizable=0;points=[];autosize=1;strokeColor=none;fillColor=none;" vertex="1" parent="1">
          <mxGeometry x="360" y="-1117" width="30" height="30" as="geometry" />
        </mxCell>
        <mxCell id="ksc56Fep-IioeLBklwjt-33" value="1" style="text;html=1;align=center;verticalAlign=middle;resizable=0;points=[];autosize=1;strokeColor=none;fillColor=none;" vertex="1" parent="1">
          <mxGeometry x="1320" y="-1100" width="30" height="30" as="geometry" />
        </mxCell>
        <mxCell id="ksc56Fep-IioeLBklwjt-35" value="2..3" style="text;html=1;align=center;verticalAlign=middle;resizable=0;points=[];autosize=1;strokeColor=none;fillColor=none;" vertex="1" parent="1">
          <mxGeometry x="865" y="-1014" width="40" height="30" as="geometry" />
        </mxCell>
        <mxCell id="ksc56Fep-IioeLBklwjt-36" value="1" style="text;html=1;align=center;verticalAlign=middle;resizable=0;points=[];autosize=1;strokeColor=none;fillColor=none;" vertex="1" parent="1">
          <mxGeometry x="870" y="-950" width="30" height="30" as="geometry" />
        </mxCell>
        <mxCell id="ksc56Fep-IioeLBklwjt-37" value="1" style="text;html=1;align=center;verticalAlign=middle;resizable=0;points=[];autosize=1;strokeColor=none;fillColor=none;" vertex="1" parent="1">
          <mxGeometry x="870" y="-864" width="30" height="30" as="geometry" />
        </mxCell>
        <mxCell id="ksc56Fep-IioeLBklwjt-38" value="0..n" style="text;html=1;align=center;verticalAlign=middle;resizable=0;points=[];autosize=1;strokeColor=none;fillColor=none;" vertex="1" parent="1">
          <mxGeometry x="865" y="-790" width="40" height="30" as="geometry" />
        </mxCell>
        <mxCell id="ksc56Fep-IioeLBklwjt-39" value="1" style="text;html=1;align=center;verticalAlign=middle;resizable=0;points=[];autosize=1;strokeColor=none;fillColor=none;" vertex="1" parent="1">
          <mxGeometry x="950" y="-1040" width="30" height="30" as="geometry" />
        </mxCell>
        <mxCell id="ksc56Fep-IioeLBklwjt-40" value="1..n" style="text;html=1;align=center;verticalAlign=middle;resizable=0;points=[];autosize=1;strokeColor=none;fillColor=none;" vertex="1" parent="1">
          <mxGeometry x="1310" y="-740" width="40" height="30" as="geometry" />
        </mxCell>
        <mxCell id="ksc56Fep-IioeLBklwjt-41" value="2..3" style="text;html=1;align=center;verticalAlign=middle;resizable=0;points=[];autosize=1;strokeColor=none;fillColor=none;" vertex="1" parent="1">
          <mxGeometry x="950" y="-1087" width="40" height="30" as="geometry" />
        </mxCell>
        <mxCell id="ksc56Fep-IioeLBklwjt-42" value="1" style="text;html=1;align=center;verticalAlign=middle;resizable=0;points=[];autosize=1;strokeColor=none;fillColor=none;" vertex="1" parent="1">
          <mxGeometry x="1320" y="-1057" width="30" height="30" as="geometry" />
        </mxCell>
        <mxCell id="ksc56Fep-IioeLBklwjt-43" value="1" style="text;html=1;align=center;verticalAlign=middle;resizable=0;points=[];autosize=1;strokeColor=none;fillColor=none;" vertex="1" parent="1">
          <mxGeometry x="1430" y="-1115" width="30" height="30" as="geometry" />
        </mxCell>
        <mxCell id="ksc56Fep-IioeLBklwjt-44" value="1" style="text;html=1;align=center;verticalAlign=middle;resizable=0;points=[];autosize=1;strokeColor=none;fillColor=none;" vertex="1" parent="1">
          <mxGeometry x="1430" y="-1284" width="30" height="30" as="geometry" />
        </mxCell>
        <mxCell id="ksc56Fep-IioeLBklwjt-45" value="0..n" style="text;html=1;align=center;verticalAlign=middle;resizable=0;points=[];autosize=1;strokeColor=none;fillColor=none;" vertex="1" parent="1">
          <mxGeometry x="1430" y="-800" width="40" height="30" as="geometry" />
        </mxCell>
        <mxCell id="ksc56Fep-IioeLBklwjt-46" value="1" style="text;html=1;align=center;verticalAlign=middle;resizable=0;points=[];autosize=1;strokeColor=none;fillColor=none;" vertex="1" parent="1">
          <mxGeometry x="1430" y="-884" width="30" height="30" as="geometry" />
        </mxCell>
        <mxCell id="ksc56Fep-IioeLBklwjt-47" value="1" style="text;html=1;align=center;verticalAlign=middle;resizable=0;points=[];autosize=1;strokeColor=none;fillColor=none;" vertex="1" parent="1">
          <mxGeometry x="1430" y="-1030" width="30" height="30" as="geometry" />
        </mxCell>
        <mxCell id="ksc56Fep-IioeLBklwjt-48" value="1" style="text;html=1;align=center;verticalAlign=middle;resizable=0;points=[];autosize=1;strokeColor=none;fillColor=none;" vertex="1" parent="1">
          <mxGeometry x="1430" y="-970" width="30" height="30" as="geometry" />
        </mxCell>
        <mxCell id="ksc56Fep-IioeLBklwjt-49" value="0..n" style="text;html=1;align=center;verticalAlign=middle;resizable=0;points=[];autosize=1;strokeColor=none;fillColor=none;" vertex="1" parent="1">
          <mxGeometry x="1510" y="-1087" width="40" height="30" as="geometry" />
        </mxCell>
        <mxCell id="ksc56Fep-IioeLBklwjt-50" value="1" style="text;html=1;align=center;verticalAlign=middle;resizable=0;points=[];autosize=1;strokeColor=none;fillColor=none;" vertex="1" parent="1">
          <mxGeometry x="1820" y="-1087" width="30" height="30" as="geometry" />
        </mxCell>
        <mxCell id="ksc56Fep-IioeLBklwjt-51" value="1" style="text;html=1;align=center;verticalAlign=middle;resizable=0;points=[];autosize=1;strokeColor=none;fillColor=none;" vertex="1" parent="1">
          <mxGeometry x="1930" y="-1029" width="30" height="30" as="geometry" />
        </mxCell>
        <mxCell id="ksc56Fep-IioeLBklwjt-52" value="1..n" style="text;html=1;align=center;verticalAlign=middle;resizable=0;points=[];autosize=1;strokeColor=none;fillColor=none;" vertex="1" parent="1">
          <mxGeometry x="1930" y="-800" width="40" height="30" as="geometry" />
        </mxCell>
        <mxCell id="ksc56Fep-IioeLBklwjt-53" value="1..n" style="text;html=1;align=center;verticalAlign=middle;resizable=0;points=[];autosize=1;strokeColor=none;fillColor=none;" vertex="1" parent="1">
          <mxGeometry x="1750" y="-744" width="40" height="30" as="geometry" />
        </mxCell>
        <mxCell id="ksc56Fep-IioeLBklwjt-54" value="1..n" style="text;html=1;align=center;verticalAlign=middle;resizable=0;points=[];autosize=1;strokeColor=none;fillColor=none;" vertex="1" parent="1">
          <mxGeometry x="1500" y="-744" width="40" height="30" as="geometry" />
        </mxCell>
        <mxCell id="ksc56Fep-IioeLBklwjt-55" value="1" style="text;html=1;align=center;verticalAlign=middle;resizable=0;points=[];autosize=1;strokeColor=none;fillColor=none;" vertex="1" parent="1">
          <mxGeometry x="1830" y="-744" width="30" height="30" as="geometry" />
        </mxCell>
        <mxCell id="ksc56Fep-IioeLBklwjt-56" value="1" style="text;html=1;align=center;verticalAlign=middle;resizable=0;points=[];autosize=1;strokeColor=none;fillColor=none;" vertex="1" parent="1">
          <mxGeometry x="1580" y="-744" width="30" height="30" as="geometry" />
        </mxCell>
        <mxCell id="ksc56Fep-IioeLBklwjt-58" value="1" style="text;html=1;align=center;verticalAlign=middle;resizable=0;points=[];autosize=1;strokeColor=none;fillColor=none;" vertex="1" parent="1">
          <mxGeometry x="650" y="-1360" width="30" height="30" as="geometry" />
        </mxCell>
        <mxCell id="ksc56Fep-IioeLBklwjt-59" value="1" style="text;html=1;align=center;verticalAlign=middle;resizable=0;points=[];autosize=1;strokeColor=none;fillColor=none;" vertex="1" parent="1">
          <mxGeometry x="650" y="-1404" width="30" height="30" as="geometry" />
        </mxCell>
        <mxCell id="ksc56Fep-IioeLBklwjt-60" value="1" style="text;html=1;align=center;verticalAlign=middle;resizable=0;points=[];autosize=1;strokeColor=none;fillColor=none;" vertex="1" parent="1">
          <mxGeometry x="1060" y="-1404" width="30" height="30" as="geometry" />
        </mxCell>
        <mxCell id="ksc56Fep-IioeLBklwjt-61" value="1" style="text;html=1;align=center;verticalAlign=middle;resizable=0;points=[];autosize=1;strokeColor=none;fillColor=none;" vertex="1" parent="1">
          <mxGeometry x="1060" y="-1360" width="30" height="30" as="geometry" />
        </mxCell>
        <mxCell id="ksc56Fep-IioeLBklwjt-62" value="1" style="text;html=1;align=center;verticalAlign=middle;resizable=0;points=[];autosize=1;strokeColor=none;fillColor=none;" vertex="1" parent="1">
          <mxGeometry x="905" y="-1360" width="30" height="30" as="geometry" />
        </mxCell>
        <mxCell id="ksc56Fep-IioeLBklwjt-63" value="1" style="text;html=1;align=center;verticalAlign=middle;resizable=0;points=[];autosize=1;strokeColor=none;fillColor=none;" vertex="1" parent="1">
          <mxGeometry x="800" y="-1360" width="30" height="30" as="geometry" />
        </mxCell>
        <mxCell id="ksc56Fep-IioeLBklwjt-64" value="1" style="text;html=1;align=center;verticalAlign=middle;resizable=0;points=[];autosize=1;strokeColor=none;fillColor=none;" vertex="1" parent="1">
          <mxGeometry x="690" y="-1404" width="30" height="30" as="geometry" />
        </mxCell>
        <mxCell id="ksc56Fep-IioeLBklwjt-65" value="1" style="text;html=1;align=center;verticalAlign=middle;resizable=0;points=[];autosize=1;strokeColor=none;fillColor=none;" vertex="1" parent="1">
          <mxGeometry x="1020" y="-1404" width="30" height="30" as="geometry" />
        </mxCell>
        <mxCell id="ksc56Fep-IioeLBklwjt-66" value="1..2" style="text;html=1;align=center;verticalAlign=middle;resizable=0;points=[];autosize=1;strokeColor=none;fillColor=none;" vertex="1" parent="1">
          <mxGeometry x="680" y="-1490" width="40" height="30" as="geometry" />
        </mxCell>
        <mxCell id="ksc56Fep-IioeLBklwjt-67" value="1..2" style="text;html=1;align=center;verticalAlign=middle;resizable=0;points=[];autosize=1;strokeColor=none;fillColor=none;" vertex="1" parent="1">
          <mxGeometry x="1020" y="-1490" width="40" height="30" as="geometry" />
        </mxCell>
        <mxCell id="ksc56Fep-IioeLBklwjt-68" value="1" style="text;html=1;align=center;verticalAlign=middle;resizable=0;points=[];autosize=1;strokeColor=none;fillColor=none;" vertex="1" parent="1">
          <mxGeometry x="760" y="-1554" width="30" height="30" as="geometry" />
        </mxCell>
        <mxCell id="ksc56Fep-IioeLBklwjt-69" value="1" style="text;html=1;align=center;verticalAlign=middle;resizable=0;points=[];autosize=1;strokeColor=none;fillColor=none;" vertex="1" parent="1">
          <mxGeometry x="950" y="-1554" width="30" height="30" as="geometry" />
        </mxCell>
        <mxCell id="ksc56Fep-IioeLBklwjt-70" value="" style="endArrow=none;html=1;rounded=0;entryX=0.5;entryY=0;entryDx=0;entryDy=0;exitX=0.5;exitY=0;exitDx=0;exitDy=0;" edge="1" parent="1" source="GPX1KlVqUzvG2VyEKRZV-12" target="GPX1KlVqUzvG2VyEKRZV-11">
          <mxGeometry width="50" height="50" relative="1" as="geometry">
            <mxPoint x="670" y="-1400" as="sourcePoint" />
            <mxPoint x="720" y="-1450" as="targetPoint" />
            <Array as="points">
              <mxPoint x="470" y="-1630" />
              <mxPoint x="670" y="-1630" />
              <mxPoint x="870" y="-1630" />
            </Array>
          </mxGeometry>
        </mxCell>
        <mxCell id="ksc56Fep-IioeLBklwjt-75" value="beinhaltet" style="edgeLabel;html=1;align=center;verticalAlign=middle;resizable=0;points=[];" vertex="1" connectable="0" parent="ksc56Fep-IioeLBklwjt-70">
          <mxGeometry x="-0.0468" y="-1" relative="1" as="geometry">
            <mxPoint as="offset" />
          </mxGeometry>
        </mxCell>
        <mxCell id="ksc56Fep-IioeLBklwjt-71" value="1" style="text;html=1;align=center;verticalAlign=middle;resizable=0;points=[];autosize=1;strokeColor=none;fillColor=none;" vertex="1" parent="1">
          <mxGeometry x="570" y="-1460" width="30" height="30" as="geometry" />
        </mxCell>
        <mxCell id="ksc56Fep-IioeLBklwjt-72" value="1..n" style="text;html=1;align=center;verticalAlign=middle;resizable=0;points=[];autosize=1;strokeColor=none;fillColor=none;" vertex="1" parent="1">
          <mxGeometry x="465" y="-1524" width="40" height="30" as="geometry" />
        </mxCell>
        <mxCell id="ksc56Fep-IioeLBklwjt-73" value="1" style="text;html=1;align=center;verticalAlign=middle;resizable=0;points=[];autosize=1;strokeColor=none;fillColor=none;" vertex="1" parent="1">
          <mxGeometry x="840" y="-1610" width="30" height="30" as="geometry" />
        </mxCell>
        <mxCell id="ksc56Fep-IioeLBklwjt-74" value="0..n" style="text;html=1;align=center;verticalAlign=middle;resizable=0;points=[];autosize=1;strokeColor=none;fillColor=none;" vertex="1" parent="1">
          <mxGeometry x="465" y="-1610" width="40" height="30" as="geometry" />
        </mxCell>
      </root>
    </mxGraphModel>
  </diagram>
</mxfile>
